<svg xmlns="http://www.w3.org/2000/svg" width="35.261" height="29.942" viewBox="0 0 35.261 29.942">
  <g id="Iconly_Light_Message" data-name="Iconly/Light/Message" transform="translate(1.5 1.5)">
    <g id="Message">
      <path id="Path_445" d="M18.978,0,11.823,5.406a3.923,3.923,0,0,1-4.606,0L0,0" transform="translate(6.633 8.754)" fill="none" stroke="#3a3939" stroke-linecap="round" stroke-linejoin="round" stroke-miterlimit="10" stroke-width="3"/>
      <path id="Rectangle_511" d="M8.2,0H24.014A8.571,8.571,0,0,1,30.02,2.5a7.613,7.613,0,0,1,2.224,5.83V18.609a7.613,7.613,0,0,1-2.224,5.83,8.571,8.571,0,0,1-6.006,2.5H8.2A8.044,8.044,0,0,1,0,18.609V8.333A8.044,8.044,0,0,1,8.2,0Z" fill="none" stroke="#3a3939" stroke-linecap="round" stroke-linejoin="round" stroke-miterlimit="10" stroke-width="3"/>
    </g>
  </g>
</svg>
