<svg xmlns="http://www.w3.org/2000/svg" width="35.97" height="33.246" viewBox="0 0 35.97 33.246">
  <g id="Iconly_Light_Calling" data-name="Iconly/Light/Calling" transform="translate(1.512 1.5)">
    <g id="Calling">
      <path id="Stroke_1" data-name="Stroke 1" d="M.841,3.777C1.384,2.942,4.376-.089,6.509,0a2.891,2.891,0,0,1,1.66.822h0c1.05.954,4.064,4.556,4.233,5.315.418,1.86-1.974,2.932-1.243,4.807A16.378,16.378,0,0,0,20.8,19.884c2.02.68,3.176-1.536,5.182-1.151.818.159,4.7,2.952,5.732,3.927h0A2.556,2.556,0,0,1,32.6,24.2c.079,2.084-3.393,4.9-4.07,5.256-1.6,1.061-3.68,1.041-6.22-.054C15.228,26.668,3.9,16.363.9,9.543-.25,7.2-.328,5.256.841,3.777Z" transform="translate(0)" fill="none" stroke="#3a3939" stroke-linecap="round" stroke-linejoin="round" stroke-miterlimit="10" stroke-width="3"/>
      <path id="Path" d="M0,0C6.353.654,11.369,5.3,12.083,11.191" transform="translate(20.705 0.398)" fill="none" stroke="#3a3939" stroke-linecap="round" stroke-linejoin="round" stroke-miterlimit="10" stroke-width="3"/>
      <path id="Path-2" data-name="Path" d="M0,0A7.338,7.338,0,0,1,6,5.567" transform="translate(20.705 6.036)" fill="none" stroke="#3a3939" stroke-linecap="round" stroke-linejoin="round" stroke-miterlimit="10" stroke-width="3"/>
    </g>
  </g>
</svg>
