<svg id="svgexport-6" xmlns="http://www.w3.org/2000/svg" width="52" height="60" viewBox="0 0 52 60">
  <g id="Page-1">
    <g id="_029---Printer" data-name="029---Printer">
      <path id="Shape" d="M47,19V14a3,3,0,0,0-3-3H43V2a2,2,0,0,0-2-2H11A2,2,0,0,0,9,2v9H8a3,3,0,0,0-3,3v5a5.006,5.006,0,0,0-5,5V46a3,3,0,0,0,3,3H7.083L5.529,56.382A3,3,0,0,0,8.465,60h35.07a3,3,0,0,0,2.936-3.618L44.917,49H49a3,3,0,0,0,3-3V24a5.006,5.006,0,0,0-5-5Zm-3-6a1,1,0,0,1,1,1v5H43V13ZM11,2H41V19H11ZM7,14a1,1,0,0,1,1-1H9v6H7ZM44.312,57.63a1,1,0,0,1-.777.37H8.465a1,1,0,0,1-.979-1.206L10.812,41H41.188l3.326,15.794a1,1,0,0,1-.2.836ZM44.5,47l-1.273-6.045A.986.986,0,0,0,44,40a1,1,0,0,0-1-1H9a1,1,0,0,0-1,1,.986.986,0,0,0,.777.955L7.5,47H6V36a1,1,0,0,1,1-1H45a1,1,0,0,1,1,1V47ZM50,46a1,1,0,0,1-1,1H48V36a3,3,0,0,0-3-3H7a3,3,0,0,0-3,3V47H3a1,1,0,0,1-1-1V24a3,3,0,0,1,3-3H47a3,3,0,0,1,3,3Z" fill="#fff"/>
      <path id="Shape-2" data-name="Shape" d="M7,25H5a1,1,0,0,0,0,2H7a1,1,0,0,0,0-2Z" fill="#fff"/>
      <path id="Shape-3" data-name="Shape" d="M13,25H11a1,1,0,0,0,0,2h2a1,1,0,0,0,0-2Z" fill="#fff"/>
      <path id="Shape-4" data-name="Shape" d="M47,25H18a1,1,0,0,0,0,2H47a1,1,0,0,0,0-2Z" fill="#fff"/>
      <path id="Shape-5" data-name="Shape" d="M18,44a6,6,0,1,0,4.2,10.28c.015-.014.034-.018.049-.033s.019-.034.033-.049A6,6,0,0,0,18,44Zm4,6a3.947,3.947,0,0,1-.567,2.019L19,49.586V46.142A4,4,0,0,1,22,50Zm-8,0a4,4,0,0,1,3-3.858V50a1,1,0,0,0,.293.707l2.726,2.726A3.947,3.947,0,0,1,18,54a4,4,0,0,1-4-4Z" fill="#fff"/>
      <path id="Shape-6" data-name="Shape" d="M29,53H27a1,1,0,0,0,0,2h2a1,1,0,0,0,0-2Z" fill="#fff"/>
      <path id="Shape-7" data-name="Shape" d="M40,53H33a1,1,0,0,0,0,2h7a1,1,0,0,0,0-2Z" fill="#fff"/>
      <path id="Shape-8" data-name="Shape" d="M27,51h9a1,1,0,0,0,0-2H27a1,1,0,0,0,0,2Z" fill="#fff"/>
      <path id="Shape-9" data-name="Shape" d="M27,47h3a1,1,0,0,0,0-2H27a1,1,0,0,0,0,2Z" fill="#fff"/>
      <path id="Shape-10" data-name="Shape" d="M34,47h4a1,1,0,0,0,0-2H34a1,1,0,0,0,0,2Z" fill="#fff"/>
    </g>
  </g>
</svg>
