<svg xmlns="http://www.w3.org/2000/svg" width="66" height="53.667" viewBox="0 0 66 53.667">
  <g id="Glyph_copy_2" transform="translate(1 -5.167)">
    <path id="Path_9438" data-name="Path 9438" d="M61,6.167H3a3.009,3.009,0,0,0-3,3V54.834a3.009,3.009,0,0,0,3,3H61a3.009,3.009,0,0,0,3-3V9.167A3.009,3.009,0,0,0,61,6.167ZM25.253,13.042H57.116v5.322H21.777ZM37.226,30.513V26.644l13.851,5.99v3.3L37.226,41.97v-3.9l9.666-3.8Zm-1.281-6.789L30.892,44.6H28.043l5-20.874h2.9ZM26.761,38.058v3.9L12.923,35.937V32.6l13.838-5.99V30.54l-9.652,3.69ZM17.27,13.985a1.646,1.646,0,1,1-1.648,1.646A1.647,1.647,0,0,1,17.27,13.985Zm-4.369,0a1.646,1.646,0,1,1-1.648,1.646A1.647,1.647,0,0,1,12.9,13.985Zm-4.369,0a1.646,1.646,0,1,1-1.648,1.646A1.647,1.647,0,0,1,8.532,13.985ZM2.242,54.074l4.525-3.437h7.954l-4.51,3.437Zm11.432,0L18.2,50.637H45.8l4.525,3.437Zm40.114,0-4.51-3.437h7.954l4.526,3.437Z" fill="none" stroke="#fff" stroke-width="2"/>
  </g>
</svg>
