<svg id="Group_10825" data-name="Group 10825" xmlns="http://www.w3.org/2000/svg" width="62.63" height="65.83" viewBox="0 0 62.63 65.83">
  <path id="Path_9439" data-name="Path 9439" d="M102.261,49.455a4.077,4.077,0,1,0,4.077,4.077A4.082,4.082,0,0,0,102.261,49.455Zm0,6.226a2.149,2.149,0,1,1,2.149-2.149A2.151,2.151,0,0,1,102.261,55.681Z" transform="translate(-87.16 -43.096)" fill="#fff"/>
  <path id="Path_9440" data-name="Path 9440" d="M81.961,191.406v-3.727a.964.964,0,0,0-.964-.964H71.174a.964.964,0,0,0-.964.964v3.727a.964.964,0,0,0,.964.964H81A.964.964,0,0,0,81.961,191.406Zm-1.929-.964H72.139v-1.8h7.894v1.8Z" transform="translate(-62.783 -162.707)" fill="#fff"/>
  <path id="Path_9441" data-name="Path 9441" d="M72.271,8H66.15a2.829,2.829,0,0,0-2.477,1.467H37.98V8.86a.964.964,0,0,0-.766-.944l-2.35-.495-.013-.031,1.312-2.011a.964.964,0,0,0-.126-1.209L33.809,1.942A.964.964,0,0,0,32.6,1.816L30.589,3.128l-.031-.013L30.063.766A.964.964,0,0,0,29.12,0H25.968a.964.964,0,0,0-.944.766l-.495,2.35-.031.013L22.488,1.816a.965.965,0,0,0-1.209.126L19.051,4.171a.965.965,0,0,0-.126,1.209l1.312,2.012-.013.031-2.35.495a.964.964,0,0,0-.766.944v.611h-.026a4.645,4.645,0,0,0-4.64,4.64v30a4.645,4.645,0,0,0,4.64,4.64h3.653a6.918,6.918,0,0,0,6.808,5.911,6.835,6.835,0,0,0,2.807-.6L28.17,62.591c-.866,3.388,4.532,4.539,5.364,1.286L37.4,48.748H40.54V63.234a2.6,2.6,0,0,0,5.192,0V48.748h3.14l3.867,15.129c.831,3.253,6.23,2.1,5.364-1.286L54.565,48.748H69.19a4.645,4.645,0,0,0,4.64-4.64V23.272a.964.964,0,1,0-1.929,0V44.108a2.714,2.714,0,0,1-2.711,2.711H34.351a6.875,6.875,0,0,0-13.615,0H17.083a2.714,2.714,0,0,1-2.711-2.711V16.1h4.4a.961.961,0,0,0,.278.6l2.228,2.228a.964.964,0,0,0,1.209.126L24.5,17.743l.031.013.495,2.35a.964.964,0,0,0,.944.766H29.12a.964.964,0,0,0,.944-.766l.495-2.35.031-.013L32.6,19.055a.964.964,0,0,0,1.209-.126L36.037,16.7a.961.961,0,0,0,.278-.6H62.977l-8.99,8.99L49.37,20.473a1.873,1.873,0,0,0-2.633,0l-3,3A.964.964,0,0,0,45.1,24.833l2.95-2.949L52.672,26.5a1.873,1.873,0,0,0,2.631,0L68.427,13.378a.964.964,0,0,0-.682-1.646h-1.6a.9.9,0,0,1,0-1.8h6.121a.874.874,0,0,1,.874.872v6.121a.9.9,0,1,1-1.8,0V15.333a.964.964,0,0,0-1.646-.682L53.988,30.36l-4.619-4.618a1.865,1.865,0,0,0-2.631,0l-7.914,7.915a.9.9,0,0,1-1.271-1.272l4.338-4.338a.964.964,0,1,0-1.364-1.364l-4.338,4.338a2.828,2.828,0,0,0,4,4l7.865-7.867,4.619,4.617a1.874,1.874,0,0,0,2.631,0l14.19-14.189a2.829,2.829,0,0,0,5.58-.657V10.806a2.8,2.8,0,0,0-2.8-2.8ZM31.665,63.4c-.214.837-1.87.62-1.627-.33L32.82,52.186a6.847,6.847,0,0,0,1.531-3.439H35.41ZM43.8,63.234a.668.668,0,0,1-1.335,0V48.748H43.8Zm12.43-.165c.242.948-1.413,1.166-1.627.33L50.863,48.748h1.711ZM26.427,42.963a5.005,5.005,0,0,1,1.117-.126,4.953,4.953,0,0,1,4.947,4.945v0a4.947,4.947,0,1,1-6.064-4.822ZM14.372,14.111A2.714,2.714,0,0,1,17.083,11.4h.026v.611a.964.964,0,0,0,.766.944l2.35.495.013.031-.451.691H14.372ZM33,17.012l-1.8-1.175a2.021,2.021,0,0,0-2.417,1l-.443,2.1H26.751l-.443-2.1a2.021,2.021,0,0,0-2.417-1l-1.8,1.175L20.968,15.89l1.175-1.8a2.021,2.021,0,0,0-1-2.417l-2.1-.443V9.643l2.1-.443a2.021,2.021,0,0,0,1-2.417l-1.175-1.8L22.09,3.859l1.8,1.175a2.021,2.021,0,0,0,2.417-1l.443-2.1h1.586l.443,2.1a2.021,2.021,0,0,0,2.417,1L33,3.859l1.122,1.122-1.175,1.8a2.021,2.021,0,0,0,1,2.417l2.1.443v1.586l-2.1.443a2.021,2.021,0,0,0-1,2.417l1.175,1.8Zm32.495-3.428-.587.587H35.3l-.45-.691.013-.031,2.35-.495a.964.964,0,0,0,.766-.944V11.4h25.4a2.85,2.85,0,0,0,2.113,2.184Z" transform="translate(-12.443 0)" fill="#fff"/>
  <path id="Path_9442" data-name="Path 9442" d="M306.32,314.018H288.044a.964.964,0,1,0,0,1.929H306.32a.964.964,0,0,0,0-1.929Z" transform="translate(-251.769 -273.643)" fill="#fff"/>
  <path id="Path_9443" data-name="Path 9443" d="M356.751,281.113H345.916a.964.964,0,0,0,0,1.929h10.835a.964.964,0,0,0,0-1.929Z" transform="translate(-302.2 -244.969)" fill="#fff"/>
  <path id="Path_9444" data-name="Path 9444" d="M71.174,244.189a.964.964,0,0,0,0,1.929h6.71a.964.964,0,0,0,0-1.929Z" transform="translate(-62.783 -212.793)" fill="#fff"/>
  <path id="Path_9445" data-name="Path 9445" d="M123.359,358.555a.964.964,0,0,0,.964-.964v-2.6a.964.964,0,0,0-1.929,0v2.6A.964.964,0,0,0,123.359,358.555Z" transform="translate(-108.258 -308.507)" fill="#fff"/>
</svg>
