<svg id="payment" xmlns="http://www.w3.org/2000/svg" width="36.212" height="36.912" viewBox="0 0 36.212 36.912">
  <g id="Group_10680" data-name="Group 10680" transform="translate(0 20.381)">
    <path id="Path_9406" data-name="Path 9406" d="M5.793,49.174H2.878A.883.883,0,0,1,2,48.3v-12.6a.883.883,0,0,1,.878-.883H5.793a2.346,2.346,0,0,1,2.341,2.346v9.677A2.346,2.346,0,0,1,5.793,49.174ZM3.084,48.091H5.793a1.257,1.257,0,0,0,1.246-1.257V37.156a1.263,1.263,0,0,0-1.246-1.263H3.084Z" transform="translate(-2 -34.81)" fill="#2d89c8"/>
    <path id="Path_9407" data-name="Path 9407" d="M29.631,46.361H20.419a.542.542,0,1,1,0-1.084h9.211a1.55,1.55,0,1,0,0-3.1h-5a.542.542,0,0,1-.368-.146,9.13,9.13,0,0,0-6.226-2.438H11.842a.542.542,0,1,1,0-1.084h6.193a10.219,10.219,0,0,1,6.806,2.585h4.79a2.633,2.633,0,1,1,0,5.267Z" transform="translate(-6.261 -38.109)" fill="#2d89c8"/>
    <path id="Path_9408" data-name="Path 9408" d="M24.527,55.773a9.79,9.79,0,0,1-3.7-.715l-9.163-3.75a.554.554,0,0,1-.258-.685.507.507,0,0,1,.628-.323L21.2,54.039a8.738,8.738,0,0,0,7.439-.39L41.4,46.854a3.914,3.914,0,0,0-4.2-1.084l-6.746,2.438a.489.489,0,0,1-.393-.028.534.534,0,0,1-.259-.314.549.549,0,0,1,.323-.683l6.725-2.422a4.909,4.909,0,0,1,5.293,1.365l.077.092a.968.968,0,0,1,.277.829.942.942,0,0,1-.513.7L29.147,54.618A9.8,9.8,0,0,1,24.527,55.773Z" transform="translate(-6.292 -39.241)" fill="#2d89c8"/>
  </g>
  <path id="Path_9409" data-name="Path 9409" d="M50.368,24.69H25.981A1,1,0,0,1,25,23.7V9.663a1,1,0,0,1,.981-.993H50.368a1,1,0,0,1,.993.993V23.7A1,1,0,0,1,50.368,24.69ZM26.226,23.463H50.135V9.9H26.226ZM50.38,9.9Z" transform="translate(-17.059 -8.67)" fill="#2d89c8"/>
  <g id="Group_10679" data-name="Group 10679" transform="translate(7.938 0)">
    <path id="Path_9410" data-name="Path 9410" d="M46.238,24.65H30.119a.613.613,0,0,1-.613-.612,3.9,3.9,0,0,0-3.893-3.893A.613.613,0,0,1,25,19.533V13.754a.613.613,0,0,1,.613-.612,3.909,3.909,0,0,0,3.906-3.9.613.613,0,0,1,.613-.612H46.238a.613.613,0,0,1,.613.612,3.9,3.9,0,0,0,3.9,3.9.613.613,0,0,1,.613.612v5.754a.613.613,0,0,1-.613.612,3.9,3.9,0,0,0-3.9,3.893.613.613,0,0,1-.613.637ZM30.7,23.426H45.662a5.128,5.128,0,0,1,4.476-4.469V14.366a5.134,5.134,0,0,1-4.476-4.475H30.7a5.14,5.14,0,0,1-4.47,4.475v4.591A5.134,5.134,0,0,1,30.7,23.426Z" transform="translate(-25 -8.63)" fill="#2d89c8"/>
    <path id="Path_9411" data-name="Path 9411" d="M44.989,19.745a2.373,2.373,0,1,1,2.367-2.367.613.613,0,1,1-1.226,0,1.14,1.14,0,1,0-1.14,1.14.613.613,0,0,1,0,1.226Z" transform="translate(-31.133 -11.118)" fill="#2d89c8"/>
    <path id="Path_9412" data-name="Path 9412" d="M45,25.473a2.367,2.367,0,0,1-2.367-2.367.613.613,0,1,1,1.226,0A1.14,1.14,0,1,0,45,21.966a.613.613,0,0,1,0-1.226,2.367,2.367,0,0,1,0,4.733Z" transform="translate(-31.141 -11.802)" fill="#2d89c8"/>
    <path id="Path_9413" data-name="Path 9413" d="M46.1,28.379a.613.613,0,0,1-.613-.613v-.693a.613.613,0,0,1,1.226,0v.693a.613.613,0,0,1-.613.613Z" transform="translate(-32.222 -13.483)" fill="#2d89c8"/>
    <path id="Path_9414" data-name="Path 9414" d="M46.1,15.793a.613.613,0,0,1-.613-.613v-.687a.613.613,0,0,1,1.226,0v.687A.613.613,0,0,1,46.1,15.793Z" transform="translate(-32.222 -10.685)" fill="#2d89c8"/>
    <path id="Path_9415" data-name="Path 9415" d="M59.98,21.966H58.613a.613.613,0,0,1,0-1.226h1.373a.613.613,0,0,1,0,1.226Z" transform="translate(-37.767 -11.962)" fill="#2d89c8"/>
    <path id="Path_9416" data-name="Path 9416" d="M32.746,21.966H31.373a.613.613,0,0,1,0-1.226h1.373a.613.613,0,0,1,0,1.226Z" transform="translate(-26.129 -11.962)" fill="#2d89c8"/>
  </g>
</svg>
