<svg id="refund" xmlns="http://www.w3.org/2000/svg" width="50.367" height="50.367" viewBox="0 0 50.367 50.367">
  <path id="Path_9403" data-name="Path 9403" d="M149.162,81a5.474,5.474,0,0,0-5.467,5.467v2.716h-4.971l-1.218,22.387h23.313L159.6,89.183h-4.971V86.467A5.473,5.473,0,0,0,149.162,81Zm8.541,27.619H140.621l.9-16.485h15.287Zm-8.541-24.668a2.519,2.519,0,0,1,2.516,2.516v2.716h-5.032V86.467A2.519,2.519,0,0,1,149.162,83.951Z" transform="translate(-123.978 -73.032)" fill="#2d89c8"/>
  <path id="Path_9404" data-name="Path 9404" d="M46.461,11.714l3.381.593.51-2.907L41.86,7.911,40.371,16.4l2.907.51.647-3.689a22.21,22.21,0,1,1-6.706-6.737l1.6-2.48A25.185,25.185,0,0,0,7.376,42.991,25.183,25.183,0,0,0,46.461,11.714Z" transform="translate(0 0)" fill="#2d89c8"/>
  <path id="Path_9405" data-name="Path 9405" d="M209.667,262.972h9.116v2.951h-9.116Z" transform="translate(-189.041 -237.103)" fill="#2d89c8"/>
</svg>
